:SAMPLES-PER-SECOND 30
:FULLY-SPECIFIED
:DEGREES
139
root  13.2024 38.6353 -4.56515 -167.415 -77.9393 158.975
RightUpLeg  -12.1289 -4.17294 -18.0334
RightLeg  25.3683 6.10385 2.92846
RightFoot  -6.0733 -0.595517 12.0116
RightToes  0.00048216 0.542163 -0.142577
Spine  18.6645 0.617272 0.423437
Spine1  4.92934 -0.0977602 2.91962
HEad  -10.3345 20.1808 -5.13854
LeftShoulder1  11.6145 -15.3469 -53.7056
LeftArm  -2.16366 8.11535 -25.5415
LeftForeArm  32.158 -12.7892 -6.44862
LeftHand  -0.25398 0.0180481 5.50724
RightShoulder  7.0498 10.9513 42.4681
RightArm  -4.44049 -4.34821 24.4608
RightForeArm  24.3779 52.3212 12.6107
RightHand  -1.41423 5.43615 -15.4517
LeftUpLeg  -8.06025 17.9593 0.30738
LeftLeg  30.258 6.58627 4.49594
LeftFoot  -13.8277 0.0389662 -2.02949
LeftToes  1.06241e-005 4.65855e-005 -8.18508e-006
140
root  12.8047 38.7514 -4.07977 -162.896 -76.9726 154.047
RightUpLeg  -10.6501 -5.35312 -20.7382
RightLeg  23.5485 8.34128 3.74992
RightFoot  -5.91998 -0.712102 14.1061
RightToes  0.00048216 0.542163 -0.142577
Spine  16.7243 0.122453 2.92232
Spine1  4.59915 -0.813943 4.88739
HEad  -7.5112 25.3007 -4.09725
LeftShoulder1  11.712 -15.2372 -54.4379
LeftArm  -2.35305 8.28864 -28.4937
LeftForeArm  34.2178 -10.5404 -7.32386
LeftHand  -0.25398 0.0180481 5.50724
RightShoulder  6.35229 10.0623 40.6298
RightArm  -4.56145 -5.82623 21.1497
RightForeArm  23.294 52.4758 12.7847
RightHand  -1.2288 4.44857 -14.7754
LeftUpLeg  -6.1397 19.7297 -1.50954
LeftLeg  28.3919 6.14818 3.94639
LeftFoot  -14.014 0.0473951 -1.56962
LeftToes  1.06241e-005 4.65855e-005 -8.18508e-006
141
root  12.2554 38.8906 -3.50501 -159.925 -75.5064 149.689
RightUpLeg  -8.11784 -5.04972 -23.704
RightLeg  21.3745 10.0354 4.10542
RightFoot  -5.32109 -0.831209 15.0507
RightToes  0.00048216 0.542163 -0.142577
Spine  14.6798 -1.02283 6.20667
Spine1  4.12764 -2.24195 6.97894
HEad  -3.86138 29.0175 -4.28776
LeftShoulder1  11.514 -15.1232 -53.87
LeftArm  3.5846 10.8319 -31.8318
LeftForeArm  33.8835 -13.5048 -6.79305
LeftHand  -0.25398 0.0180481 5.50724
RightShoulder  5.41511 8.91511 37.57
RightArm  -5.66412 -5.49385 19.6891
RightForeArm  21.4759 51.7921 12.5938
RightHand  -1.15579 3.77627 -14.8911
LeftUpLeg  -2.62544 22.3308 -3.0742
LeftLeg  25.9893 5.40131 3.29724
LeftFoot  -13.8992 0.0611507 -0.985863
LeftToes  1.06241e-005 4.65855e-005 -8.18508e-006
142
root  11.65 39.009 -3.00566 -158.376 -72.2733 146.408
RightUpLeg  -6.66944 -1.3501 -26.6201
RightLeg  20.0757 9.87041 3.77629
RightFoot  -4.60863 -0.870849 14.2086
RightToes  0.00048216 0.542163 -0.142577
Spine  12.8455 -2.2577 8.80084
Spine1  3.82483 -3.85188 8.73006
HEad  -1.26423 30.8565 -5.30169
LeftShoulder1  11.221 -15.0362 -52.7872
LeftArm  14.1698 14.8751 -33.1266
LeftForeArm  31.9343 -22.0772 -4.3293
LeftHand  -0.25398 0.0180481 5.50724
RightShoulder  4.73816 8.00514 35.2216
RightArm  -6.96453 -1.99066 19.4726
RightForeArm  18.1936 51.2197 12.5831
RightHand  -1.28925 3.80146 -16.4745
LeftUpLeg  2.01692 25.8831 -4.51103
LeftLeg  22.6106 5.2271 2.2215
LeftFoot  -13.5813 0.0683864 -0.694998
LeftToes  1.06241e-005 4.65855e-005 -8.18508e-006
143
root  11.0882 38.9617 -2.69661 -159.067 -66.5941 145.577
RightUpLeg  -8.37785 6.49875 -29.2076
RightLeg  21.5283 7.49273 3.02242
RightFoot  -4.91482 -0.73992 12.5057
RightToes  0.00048216 0.542163 -0.142577
Spine  11.659 -3.03381 9.95618
Spine1  4.43151 -5.1078 10.1616
HEad  -1.47043 31.9995 -6.58243
LeftShoulder1  10.9403 -14.8518 -52.0059
LeftArm  13.504 19.0666 -30.8023
LeftForeArm  40.142 -32.6187 -4.8174
LeftHand  -0.25398 0.0180481 5.50724
RightShoulder  4.59566 7.69995 35.0574
RightArm  -6.21699 5.67208 19.623
RightForeArm  15.1683 50.5297 12.4983
RightHand  -1.57878 4.65544 -18.4558
LeftUpLeg  5.99279 25.7358 -6.53583
LeftLeg  19.8134 10.6481 0.976724
LeftFoot  -13.8744 0.0519631 -1.34856
LeftToes  1.06241e-005 4.65855e-005 -8.18508e-006
